<?xml version="1.0" standalone="no"?>
<!DOCTYPE svg PUBLIC "-//W3C//DTD SVG 1.1//EN" "http://www.w3.org/Graphics/SVG/1.1/DTD/svg11.dtd" >
<svg xmlns="http://www.w3.org/2000/svg">
<metadata>
Created by FontForge 20120731 at Fri Apr 22 18:12:10 2016
 By admin
</metadata>
<defs>
<font id="iconfont" horiz-adv-x="1024" >
  <font-face 
    font-family="iconfont"
    font-weight="500"
    font-stretch="normal"
    units-per-em="1024"
    panose-1="2 0 6 3 0 0 0 0 0 0"
    ascent="896"
    descent="-128"
    x-height="792"
    bbox="34 -88 968 839"
    underline-thickness="50"
    underline-position="-100"
    unicode-range="U+0078-E62D"
  />
<missing-glyph horiz-adv-x="374" 
d="M34 0v682h272v-682h-272zM68 34h204v614h-204v-614z" />
    <glyph glyph-name=".notdef" horiz-adv-x="374" 
d="M34 0v682h272v-682h-272zM68 34h204v614h-204v-614z" />
    <glyph glyph-name=".null" horiz-adv-x="0" 
 />
    <glyph glyph-name="nonmarkingreturn" horiz-adv-x="341" 
 />
    <glyph glyph-name="x" unicode="x" horiz-adv-x="1001" 
d="M281 543q-27 -1 -53 -1h-83q-18 0 -36.5 -6t-32.5 -18.5t-23 -32t-9 -45.5v-76h912v41q0 16 -0.5 30t-0.5 18q0 13 -5 29t-17 29.5t-31.5 22.5t-49.5 9h-133v-97h-438v97zM955 310v-52q0 -23 0.5 -52t0.5 -58t-10.5 -47.5t-26 -30t-33 -16t-31.5 -4.5q-14 -1 -29.5 -0.5
t-29.5 0.5h-32l-45 128h-439l-44 -128h-29h-34q-20 0 -45 1q-25 0 -41 9.5t-25.5 23t-13.5 29.5t-4 30v167h911zM163 247q-12 0 -21 -8.5t-9 -21.5t9 -21.5t21 -8.5q13 0 22 8.5t9 21.5t-9 21.5t-22 8.5zM316 123q-8 -26 -14 -48q-5 -19 -10.5 -37t-7.5 -25t-3 -15t1 -14.5
t9.5 -10.5t21.5 -4h37h67h81h80h64h36q23 0 34 12t2 38q-5 13 -9.5 30.5t-9.5 34.5q-5 19 -11 39h-368zM336 498v228q0 11 2.5 23t10 21.5t20.5 15.5t34 6h188q31 0 51.5 -14.5t20.5 -52.5v-227h-327z" />
    <glyph glyph-name="uniE600" unicode="&#xe600;" 
d="M731 -52h-436q-72 0 -97.5 28.5t-25.5 104.5v457q0 10 7.5 17.5t18 7.5t18 -7.5t7.5 -17.5v-457q0 -56 10.5 -68.5t61.5 -12.5h436q52 0 66.5 13.5t14.5 67.5v457q0 10 7.5 17.5t18.5 7.5t18.5 -7.5t7.5 -17.5v-457q0 -75 -30 -104t-103 -29zM620 -39q-5 0 -9 4t-4 9v243
q0 18 -5.5 22t-27.5 4h-123q-8 0 -11.5 -0.5t-7 -0.5t-4 -3t-1 -4t0 -7.5t0.5 -10.5v-243q0 -5 -3.5 -9t-9 -4t-9.5 4t-4 9v243q0 32 10 42t39 10h123q31 0 45 -10.5t14 -41.5v-243q0 -5 -4 -9t-9 -4zM90 461q-13 0 -20 10q-7 9 -5.5 19.5t10.5 16.5l422 318q9 7 19.5 5.5
t17 -10t5 -19t-10.5 -16.5l-423 -319q-6 -5 -15 -5zM936 461q-9 0 -16 5l-423 319q-8 6 -9.5 16.5t5 19t17 10t18.5 -5.5l423 -318q8 -6 9.5 -16.5t-4.5 -19.5q-8 -10 -20 -10zM287 345q-5 0 -9 4t-4 9v146q0 8 3 10l167 129q10 8 17 -2q9 -12 0 -18l-161 -125v-140
q0 -5 -4 -9t-9 -4zM287 281q-5 0 -9 4t-4 9v13q0 5 4 9t9 4t9 -4t4 -9v-13q0 -5 -4 -9t-9 -4z" />
    <glyph glyph-name="uniE601" unicode="&#xe601;" 
d="M364 296zM513 -65h-298q-34 0 -59 24.5t-25 57.5q0 75 65 167.5t144 130.5q10 4 20 0.5t14.5 -13t1 -20t-13.5 -14.5q-68 -33 -123.5 -113.5t-55.5 -137.5q0 -11 10 -20.5t22 -9.5h298q11 0 18.5 -7.5t7.5 -18.5t-7.5 -18.5t-18.5 -7.5zM662 296zM811 -65h-298
q-11 0 -18.5 7.5t-7.5 18.5t7.5 18.5t18.5 7.5h298q12 0 22 9.5t10 20.5q0 57 -55.5 137.5t-124.5 113.5q-9 4 -13 14.5t1 20t15 13t20 -0.5q79 -38 144 -130.5t65 -167.5q0 -33 -25.5 -57.5t-58.5 -24.5zM664 296zM516.5 318q-105.5 0 -180 75t-74.5 180.5t74.5 180
t180 74.5t180.5 -74.5t75 -180t-75 -180.5t-180.5 -75zM517 777q-84 0 -143.5 -60t-59.5 -144t59.5 -143.5t143.5 -59.5t143.5 59.5t59.5 143.5t-59.5 144t-143.5 60zM664 296zM370.5 560q-5.5 0 -9 4t-3.5 9q0 66 46.5 113t112.5 47q5 0 9 -4t4 -9.5t-4 -9t-9 -3.5
q-55 0 -94.5 -39.5t-39.5 -94.5q0 -5 -3.5 -9t-9 -4zM525 720zM397 520.5q0 -5.5 -3.5 -9t-9 -3.5t-9.5 3.5t-4 9t4 9.5t9.5 4t9 -4t3.5 -9.5z" />
    <glyph glyph-name="uniE602" unicode="&#xe602;" 
d="M557 383l266 264q9 9 9 22t-9.5 22.5t-22.5 9.5t-23 -9l-265 -264l-263 264q-9 9 -22.5 9t-23 -9t-9.5 -22.5t10 -22.5l263 -264l-265 -264q-10 -9 -10 -22.5t9.5 -22.5t22.5 -9t23 9l265 264l265 -267q10 -9 23 -9t22.5 9.5t9.5 22.5t-9 23z" />
    <glyph glyph-name="uniE603" unicode="&#xe603;" 
d="M490 499q0 -40 -27.5 -68t-67.5 -28h-235q-40 0 -68 28t-28 68v235q0 40 28 67.5t68 27.5h235q40 0 67.5 -27.5t27.5 -67.5v-235zM436 734q0 17 -12 29t-29 12h-235q-17 0 -29 -12t-12 -29v-235q0 -17 12 -29t29 -12h235q17 0 29 12t12 29v235zM174.5 610q-5.5 0 -9.5 4
t-4 9v25q0 29 17 50.5t43 21.5h86q5 0 9 -4.5t4 -10t-4 -9.5t-9 -4h-86q-15 0 -24 -13.5t-9 -30.5v-25q0 -5 -4 -9t-9.5 -4zM169.5 562q-5.5 0 -10.5 4q-4 5 -4 10.5t4 9.5q10 9 20 0q4 -4 4 -9.5t-4 -10t-9.5 -4.5zM958 499q0 -40 -28 -68t-67 -28h-236q-39 0 -67 28
t-28 68v235q0 40 28 67.5t67 27.5h236q39 0 67 -27.5t28 -67.5v-235zM903 734q0 17 -12 29t-28 12h-236q-17 0 -28.5 -12t-11.5 -29v-235q0 -17 11.5 -29t28.5 -12h236q16 0 28 12t12 29v235zM490 31q0 -39 -27.5 -67t-67.5 -28h-235q-40 0 -68 28t-28 67v236q0 39 28 67
t68 28h235q40 0 67.5 -28t27.5 -67v-236zM436 267q0 17 -12 28.5t-29 11.5h-235q-17 0 -29 -11.5t-12 -28.5v-236q0 -16 12 -28t29 -12h235q17 0 29 12t12 28v236zM958 31q0 -39 -28 -67t-67 -28h-236q-39 0 -67 28t-28 67v236q0 39 28 67t67 28h236q39 0 67 -28t28 -67
v-236zM903 267q0 17 -12 28.5t-28 11.5h-236q-17 0 -28.5 -11.5t-11.5 -28.5v-236q0 -16 11.5 -28t28.5 -12h236q16 0 28 12t12 28v236z" />
    <glyph glyph-name="uniE60B" unicode="&#xe60b;" 
d="M512 832q-122 0 -225 -60t-163 -163t-60 -225t60 -225t163 -163t225 -60t225 60t163 163t60 225t-60 225t-163 163t-225 60zM761 180l-45 -45l-204 204l-204 -204l-45 45l204 204l-204 204l45 45l204 -204l204 204l45 -45l-204 -204z" />
    <glyph glyph-name="uniE60C" unicode="&#xe60c;" 
d="M305 159q-9 -5 -16 2t-2 16l86 143l76 -75zM495 273l-17 18l-1 1l-57 56q-5 6 -9 10l-9 9l299 299l94 -93zM944 723l-93 93q-16 16 -37.5 16t-37.5 -16l-412 -411q-10 -11 -13 -28l-115 -232q-7 -20 5.5 -33t31.5 -4l232 114q18 4 28 14l411 412q16 15 16 37t-16 38z
M888 667l-56 -56l-92 94l55 55q8 8 18.5 8t18.5 -8l56 -56q8 -8 8 -19t-8 -18zM928 526q-14 0 -23 -9.5t-9 -23.5v-517h-768v768h384q14 0 23.5 9t9.5 23t-9.5 23t-23.5 9h-382q-27 0 -46.5 -19.5t-19.5 -46.5v-764q0 -27 19.5 -46.5t46.5 -19.5h764q27 0 46.5 19.5
t19.5 46.5v515q0 14 -9 23.5t-23 9.5z" />
    <glyph glyph-name="uniE60D" unicode="&#xe60d;" 
d="M776 784zM76 469q-11 -8 -11 -18.5t11 -18.5l152 -104q10 -8 18.5 -3.5t8.5 17.5v217q0 13 -8.5 17.5t-18.5 -3.5zM447 444q0 -13 -9.5 -22.5t-22.5 -9.5h-160q-14 0 -23 9.5t-9 22.5t9 22.5t23 9.5h160q13 0 22.5 -9.5t9.5 -22.5zM896 832h-512q-27 0 -45.5 -18.5
t-18.5 -45.5v-128q0 -13 9.5 -22.5t22.5 -9.5t22.5 9.5t9.5 22.5v128h433l-177 -72q-11 0 -37.5 -22t-26.5 -47v-499h-192v128q0 13 -9.5 22.5t-22.5 9.5t-22.5 -9.5t-9.5 -22.5v-128q0 -27 18.5 -45.5t45.5 -18.5h192v-59q0 -29 18.5 -49t45.5 -20l256 104q18 9 24.5 12.5
t18.5 12.5t16.5 19.5t4.5 24.5v659q0 27 -18.5 45.5t-45.5 18.5z" />
    <glyph glyph-name="uniE60E" unicode="&#xe60e;" 
d="M880 489l-187 -10q1 14 -4 28l-135 285q-11 25 -36 35.5t-51 0.5l-31 -13q-25 -10 -35.5 -35.5t-0.5 -50.5l92 -262l-278 -15q-29 0 -46 -7l-46 97q-4 9 -13.5 13t-18.5 0l-12 -5q-9 -3 -13 -12.5t0 -19.5l39 -111q3 -9 12 -13q-9 -4 -12 -13l-39 -111q-4 -9 0 -18.5
t13 -13.5l12 -5q9 -4 18.5 0t13.5 14l37 78q18 -11 55 -11l277 -15l-91 -260q-10 -25 0.5 -50.5t35.5 -35.5l31 -13q26 -10 51 0.5t36 35.5l135 285q5 13 5 26l186 -10q34 0 57.5 31t23.5 75t-23.5 75t-57.5 31z" />
    <glyph glyph-name="uniE60F" unicode="&#xe60f;" 
d="M960 287.5q0 28.5 -15.5 52.5t-40.5 37v188q0 23 -17.5 41t-41.5 18h-693v-3q-12 20 -11.5 41.5t11.5 33.5h704q0 28 -22.5 50t-52.5 22h-647q-29 0 -49.5 -21.5t-20.5 -50.5v-635q0 -27 20 -44t50 -17h711q25 0 42 13.5t17 35.5v149q25 13 40.5 37t15.5 52.5zM216 48
h-40v528h40v-528zM794 208q-34 0 -57.5 23.5t-23.5 56.5t23.5 56.5t57.5 23.5h86h8v-159q-4 -1 -8 -1h-86zM785.5 315q-11.5 0 -19.5 -8t-8 -19.5t8 -19.5t19.5 -8t19.5 8t8 19.5t-8 19.5t-19.5 8z" />
    <glyph glyph-name="uniE610" unicode="&#xe610;" 
d="M896 704h-768q-27 0 -45.5 -18.5t-18.5 -45.5v-512q0 -27 18.5 -45.5t45.5 -18.5h768q27 0 45.5 18.5t18.5 45.5v512q0 27 -18.5 45.5t-45.5 18.5zM131 224q0 47 29 84.5t74 50.5q-27 12 -44 36.5t-17 54.5q0 42 29.5 71.5t71.5 29.5t71.5 -30t29.5 -72q0 -30 -17 -54
t-44 -36q45 -13 74 -50.5t29 -84.5h-286zM896 256h-384v64h384v-64zM896 384h-384v64h384v-64z" />
    <glyph glyph-name="uniE611" unicode="&#xe611;" 
d="M897 768q0 27 -18.5 45.5t-45.5 18.5h-640q-26 0 -45 -18.5t-19 -45.5v-768q0 -27 19 -45.5t45 -18.5h640q27 0 45.5 18.5t18.5 45.5v768zM513 192h-256v64h256v-64zM769 320h-512v64h512v-64zM769 448h-512v64h512v-64zM769 576h-512v64h512v-64z" />
    <glyph glyph-name="uniE612" unicode="&#xe612;" 
d="M352 304h320v-64h-320v64zM352 144h320v-64h-320v64zM899 704h-67v96q0 13 -10.5 22.5t-25.5 9.5h-568q-15 0 -25.5 -9.5t-10.5 -22.5v-96h-61q-27 0 -47 -19t-20 -45v-384q0 -26 20 -45t47 -19h61v-224q0 -14 9 -23t24 -9h571q15 0 25.5 9.5t10.5 22.5v224h67
q26 0 43.5 18.5t17.5 45.5v384q0 27 -17.5 45.5t-43.5 18.5zM256 768h512v-64h-512v64zM134 557q0 20 14 34t34 14t34 -14t14 -34t-14 -34t-34 -14t-34 14t-14 34zM768 0h-512v384h512v-384z" />
    <glyph glyph-name="uniE613" unicode="&#xe613;" 
d="M897 576q0 27 -19 45.5t-45 18.5h-81q-22 84 -90.5 138t-157.5 54t-157.5 -54t-90.5 -138h-65q-26 0 -45 -18.5t-19 -45.5l-63 -575q0 -27 18.5 -46t44.5 -19h770q26 0 44.5 19t18.5 46zM628 296v-40h-88v-24h88v-40h-88v-72h-48v72h-88v40h88v24h-88v40h66l-87 168h53
l63 -121q7 -12 13 -27l4 8l4 10q3 6 6 11l59 119h56l-87 -168h74zM323 640q20 57 69.5 92.5t111.5 35.5t111.5 -35.5t69.5 -92.5h-362z" />
    <glyph glyph-name="uniE614" unicode="&#xe614;" 
d="M548 779q-22 11 -41 -5l-223 -186l-178 1q-16 0 -27.5 -11.5t-11.5 -27.5v-309q0 -17 11 -28t27 -11h180l222 -185q10 -9 24 -9q9 0 17 4q22 10 22 35v697q0 25 -22 35v0zM698 585q-14 7 -29 1.5t-22 -19.5t-2 -29t20 -22q3 -2 7 -5t14.5 -13t18 -22t14 -33t6.5 -45
q0 -26 -6 -48t-13 -34.5t-16.5 -23t-13.5 -13t-7 -4.5q-14 -7 -19.5 -22.5t2.5 -29.5q10 -21 34 -21q10 0 18 4q5 2 12 6.5t24 21t29.5 36.5t23 54.5t10.5 73.5q0 38 -11 71.5t-24.5 53t-31 35.5t-25.5 20.5t-13 6.5v0zM819 699q-14 9 -29.5 5.5t-24 -17t-5.5 -29t17 -24.5
q5 -3 12.5 -9.5t25 -27.5t31 -46t24 -66.5t10.5 -89t-10.5 -89.5t-23 -67t-29 -46t-23.5 -27l-13 -10q-13 -8 -16.5 -24t5.5 -29q12 -18 33 -18q11 0 21 7q7 4 16.5 12.5t32 35t40 58.5t31 85t13.5 112.5t-14 112.5t-32 85t-41.5 59t-34 35t-16.5 12v0zM819 699z" />
    <glyph glyph-name="uniE615" unicode="&#xe615;" 
d="M511 835q-91 0 -174 -35.5t-143 -95.5t-95.5 -143t-35.5 -174t35.5 -174t95.5 -143t143 -95.5t174 -35.5t174 35.5t143 95.5t95.5 143t35.5 174t-35.5 174t-95.5 143t-143 95.5t-174 35.5zM800 352h-320v384h64v-320h256v-64z" />
    <glyph glyph-name="uniE616" unicode="&#xe616;" 
d="M928 128h-32v288q0 13 -9.5 22.5t-22.5 9.5h-320v128h128q13 0 22.5 9.5t9.5 22.5v192q0 13 -9.5 22.5t-22.5 9.5h-320q-13 0 -22.5 -9.5t-9.5 -22.5v-192q0 -13 9.5 -22.5t22.5 -9.5h128v-128h-320q-13 0 -22.5 -9.5t-9.5 -22.5v-288h-32q-13 0 -22.5 -9.5t-9.5 -22.5
v-128q0 -13 9.5 -22.5t22.5 -9.5h192q13 0 22.5 9.5t9.5 22.5v128q0 13 -9.5 22.5t-22.5 9.5h-96v224q0 13 9.5 22.5t22.5 9.5h224q13 0 22.5 -9.5t9.5 -22.5v-224h-64q-13 0 -22.5 -9.5t-9.5 -22.5v-128q0 -13 9.5 -22.5t22.5 -9.5h192q13 0 22.5 9.5t9.5 22.5v128
q0 13 -9.5 22.5t-22.5 9.5h-64v224q0 13 9.5 22.5t22.5 9.5h224q13 0 22.5 -9.5t9.5 -22.5v-224h-96q-13 0 -22.5 -9.5t-9.5 -22.5v-128q0 -13 9.5 -22.5t22.5 -9.5h192q13 0 22.5 9.5t9.5 22.5v128q0 13 -9.5 22.5t-22.5 9.5z" />
    <glyph glyph-name="uniE617" unicode="&#xe617;" 
d="M821 129q25 13 40.5 38t15.5 54q0 43 -30.5 73.5t-73.5 30.5t-73.5 -30.5t-30.5 -73.5q0 -28 14 -51.5t38 -37.5q-61 -15 -100.5 -65t-39.5 -114q0 -8 1 -17h366q1 9 1 17q0 61 -36 109.5t-92 66.5zM620 154q-15 32 -15 67q0 70 49.5 119t118.5 49q73 0 123 -53v432
q0 27 -18.5 45.5t-45.5 18.5h-640q-27 0 -45.5 -18.5t-18.5 -45.5v-768q0 -27 18.5 -45.5t45.5 -18.5h326q-1 10 -1 17q0 61 27.5 114t75.5 87zM192 704h640v-64h-640v64zM192 512h384v-64h-384v64zM448 256h-256v64h256v-64z" />
    <glyph glyph-name="uniE618" unicode="&#xe618;" 
d="M832 832h-640q-27 0 -45.5 -18.5t-18.5 -45.5v-768q0 -27 18.5 -45.5t45.5 -18.5h343q-41 36 -64 86t-23 106q0 106 75 181t181 75q56 0 106 -23t86 -64v471q0 27 -18.5 45.5t-45.5 18.5zM448 256h-256v64h256v-64zM576 448h-384v64h384v-64zM832 640h-640v64h640v-64z
M704 320q-80 0 -136 -56t-56 -136t56 -136t136 -56t136 56t56 136t-56 136t-136 56zM671 15l-2 2l-113 113l45 45l70 -70l136 136l45 -45z" />
    <glyph glyph-name="uniE619" unicode="&#xe619;" 
d="M736 640q13 0 22.5 9.5t9.5 22.5v128q0 13 -9.5 22.5t-22.5 9.5t-22.5 -9.5t-9.5 -22.5v-128q0 -13 9.5 -22.5t22.5 -9.5zM288 640q13 0 22.5 9.5t9.5 22.5v128q0 13 -9.5 22.5t-22.5 9.5t-22.5 -9.5t-9.5 -22.5v-128q0 -13 9.5 -22.5t22.5 -9.5zM896 768h-112v-49
q32 -24 32 -64q0 -33 -23.5 -56.5t-56.5 -23.5t-56.5 23.5t-23.5 56.5q0 40 32 64v49h-352v-48q32 -26 32 -64q0 -33 -23.5 -57t-56.5 -24t-56.5 24t-23.5 57q0 38 32 64v48h-112q-26 0 -45 -19t-19 -46v-704q0 -26 18.5 -44.5t45.5 -18.5h768q27 0 45.5 18.5t18.5 44.5v704
q0 27 -19 46t-45 19zM896 0h-768v512h768v-512zM471 74l271 272l-45 45l-229 -229l-136 136l-45 -45l181 -181z" />
    <glyph glyph-name="uniE61A" unicode="&#xe61a;" 
d="M160 640h128q13 0 22.5 9.5t9.5 22.5t-9.5 22.5t-22.5 9.5h-128q-13 0 -22.5 -9.5t-9.5 -22.5t9.5 -22.5t22.5 -9.5zM160 384h128q13 0 22.5 9.5t9.5 22.5t-9.5 22.5t-22.5 9.5h-128q-13 0 -22.5 -9.5t-9.5 -22.5t9.5 -22.5t22.5 -9.5zM320 160q0 13 -9.5 22.5t-22.5 9.5
h-128q-13 0 -22.5 -9.5t-9.5 -22.5t9.5 -22.5t22.5 -9.5h128q13 0 22.5 9.5t9.5 22.5zM192 768v-32h96q26 0 45 -19t19 -45t-19 -45t-45 -19h-96v-128h96q26 0 45 -19t19 -45t-19 -45t-45 -19h-96v-128h96q26 0 45 -19t19 -45t-19 -45t-45 -19h-96v-96q0 -27 18.5 -45.5
t45.5 -18.5h448v896h-448q-27 0 -45.5 -18.5t-18.5 -45.5zM832 832h-64v-896h64q27 0 45.5 18.5t18.5 45.5v768q0 27 -18.5 45.5t-45.5 18.5z" />
    <glyph glyph-name="uniE61B" unicode="&#xe61b;" 
d="M900 704h-388v64q0 27 -17 45.5t-43 18.5h-320q-27 0 -47.5 -19t-20.5 -45v-768q0 -26 20.5 -45t47.5 -19h768q26 0 43 18.5t17 45.5v640q0 27 -17 45.5t-43 18.5zM704 288h-160v-160h-64v160h-160v64h160v160h64v-160h160v-64z" />
    <glyph glyph-name="uniE61C" unicode="&#xe61c;" 
d="M896 688h-384v68q0 26 -18.5 43t-45.5 17h-320q-27 0 -45.5 -17t-18.5 -43v-768q0 -27 19 -47.5t45 -20.5h768q26 0 45 20.5t19 47.5v640q0 26 -18.5 43t-45.5 17zM512 52q-93 0 -158.5 65.5t-65.5 158.5t65.5 158.5t158.5 65.5t158.5 -65.5t65.5 -158.5t-65.5 -158.5
t-158.5 -65.5zM544 448h-64v-224h192v64h-128v160z" />
    <glyph glyph-name="uniE61D" unicode="&#xe61d;" 
d="M384 0h-256v768h704v-192q0 -13 9.5 -22.5t22.5 -9.5t22.5 9.5t9.5 22.5v192q0 27 -18.5 45.5t-45.5 18.5h-704q-27 0 -45.5 -18.5t-18.5 -45.5v-768q0 -27 18.5 -45.5t45.5 -18.5h256q13 0 22.5 9.5t9.5 22.5t-9.5 22.5t-22.5 9.5zM955 -13l-131 131q72 88 72 202
q0 133 -93.5 226.5t-226.5 93.5t-226.5 -93.5t-93.5 -226.5t93.5 -226.5t226.5 -93.5q114 0 202 72l131 -131q10 -9 23 -9t22.5 9.5t9.5 22.5t-9 23zM576 64q-106 0 -181 75t-75 181t75 181t181 75t181 -75t75 -181t-75 -181t-181 -75zM668 368h-198h-1q-1 1 -2 1
q30 30 54 71q26 44 26 55q0 15 -14 15q-10 0 -15 -12v1q-21 -46 -47 -80q-29 -36 -61 -59h1q-6 0 -8 -9q-1 -5 0.5 -9t5.5 -7t7 -3q16 0 40 28v-4q0 -12 15 -12h57q-5 -61 -25 -99q-11 -21 -30 -38q-21 -19 -45 -33q-11 -6 -11 -16q0 -5 3.5 -10.5t11.5 -5.5q12 0 48 26
q1 1 12.5 12t16.5 17q10 12 24 39q19 38 26 108h105q4 0 6 -4q2 -3 3 -9q-2 -28 -3 -61q-1 -32 -3 -61q-2 -28 -32 -28q-21 0 -57 13h1q-2 1 -4 1.5t-4 0.5q-17 0 -17 -15q0 -9 11 -15q5 -2 13.5 -4.5t20.5 -5.5q24 -6 45 -6q9 0 15.5 2t14.5 9q13 8 18 20.5t5 27.5
q1 29 3 62q1 32 3 62q0 16 -8 26q-6 9 -27 9zM756 365q-14 10 -28 24t-27.5 32.5t-24.5 37.5t-19 40q-3 7 -7 10t-8 3q-7 0 -11.5 -5.5t-3.5 -11.5q1 -13 27 -58q13 -23 27.5 -41.5t29.5 -32.5q16 -16 26.5 -23.5t16.5 -7.5t10 5.5t4 9.5q0 9 -12 18z" />
    <glyph glyph-name="uniE61E" unicode="&#xe61e;" 
d="M388 0h-260v768h704v-192q0 -13 9.5 -22.5t22.5 -9.5t22.5 9.5t9.5 22.5v192q0 27 -17 45.5t-43 18.5h-704q-27 0 -47.5 -19t-20.5 -45v-768q0 -26 20.5 -45t47.5 -19h256q13 0 22.5 9.5t9.5 22.5t-9.5 22.5t-22.5 9.5zM959 -13l-131 131q72 88 72 202q0 133 -93.5 226.5
t-226.5 93.5t-226.5 -93.5t-93.5 -226.5t93.5 -226.5t226.5 -93.5q114 0 202 72l131 -131q10 -9 23 -9t22.5 9.5t9.5 22.5t-9 23zM580 64q-106 0 -181 75t-75 181t75 181t181 75t181 -75t75 -181t-75 -181t-181 -75z" />
    <glyph glyph-name="uniE61F" unicode="&#xe61f;" 
d="M963 652l-45 45l-544 -544l-265 265l-45 -45l310 -310z" />
    <glyph glyph-name="uniE620" unicode="&#xe620;" 
d="M64 382q0 -53 37.5 -90.5t90.5 -37.5t90.5 37.5t37.5 90.5t-37.5 90.5t-90.5 37.5t-90.5 -37.5t-37.5 -90.5zM384 379q0 -53 37.5 -90.5t90.5 -37.5t90.5 37.5t37.5 90.5t-37.5 90.5t-90.5 37.5t-90.5 -37.5t-37.5 -90.5zM704 382q0 -53 37.5 -90.5t90.5 -37.5t90.5 37.5
t37.5 90.5t-37.5 90.5t-90.5 37.5t-90.5 -37.5t-37.5 -90.5z" />
    <glyph glyph-name="uniE621" unicode="&#xe621;" 
d="M842 771q21 0 36 -14t15 -33q0 -18 -12 -31q-2 -1 -3 -2l-268 -255q-19 -18 -19 -43v-361l-167 124v245q0 25 -18 42l-260 247q-1 2 -3 4q-12 13 -12 30q0 19 15 33t36 14h660zM842 832h-660q-49 0 -83.5 -31.5t-34.5 -76.5q0 -39 28 -70q2 -3 4 -5l262 -248v-260
q0 -13 11 -23h1v-1l235 -174q9 -7 21 -7q15 0 24 10q10 10 8 23v424l269 256l4 4q29 30 29 71q0 45 -34.5 76.5t-83.5 31.5v0zM842 832z" />
    <glyph glyph-name="uniE622" unicode="&#xe622;" 
d="M736 636q13 0 22.5 9.5t9.5 22.5v128q0 13 -9.5 22.5t-22.5 9.5t-22.5 -9.5t-9.5 -22.5v-128q0 -13 9.5 -22.5t22.5 -9.5zM288 636q13 0 22.5 9.5t9.5 22.5v128q0 13 -9.5 22.5t-22.5 9.5t-22.5 -9.5t-9.5 -22.5v-128q0 -13 9.5 -22.5t22.5 -9.5zM896 760h-96v-92
q0 -26 -19 -45t-45 -19t-45 19t-19 45v92h-320v-92q0 -26 -19 -45t-45 -19t-45 19t-19 45v92h-96q-27 0 -45.5 -17t-18.5 -43v-704q0 -27 19 -47.5t45 -20.5h768q26 0 45 20.5t19 47.5v704q0 26 -18.5 43t-45.5 17zM896 -8h-768v512h768v-512zM256 440h128v-128h-128v128z
M448 440h128v-128h-128v128zM640 440h128v-128h-128v128zM256 248h128v-128h-128v128zM448 248h128v-128h-128v128zM640 248h128v-128h-128v128z" />
    <glyph glyph-name="uniE623" unicode="&#xe623;" 
d="M896 832h-768q-27 0 -45.5 -18.5t-18.5 -45.5v-768q0 -27 18.5 -45.5t45.5 -18.5h768q27 0 45.5 18.5t18.5 45.5v768q0 27 -18.5 45.5t-45.5 18.5zM902.5 21.5q-9.5 -9.5 -22.5 -9.5t-23 9l-130 131q-89 -72 -203 -72q-87 0 -160.5 43t-116.5 116.5t-43 160.5t43 160.5
t116.5 116.5t160.5 43t160.5 -43t116.5 -116.5t43 -160.5q0 -114 -72 -202l131 -131q9 -10 9 -23t-9.5 -22.5zM268 400q0 -106 75 -181t181 -75t181 75t75 181t-75 181t-181 75t-181 -75t-75 -181z" />
    <glyph glyph-name="uniE624" unicode="&#xe624;" 
d="M896 832h-768q-27 0 -45.5 -18.5t-18.5 -45.5v-768q0 -27 18.5 -45.5t45.5 -18.5h768q27 0 45.5 18.5t18.5 45.5v768q0 27 -18.5 45.5t-45.5 18.5zM899 21q-9 -9 -22.5 -9t-22.5 9l-131 131q-88 -73 -202 -73q-87 0 -161 43t-116.5 117t-42.5 160.5t42.5 160.5
t116.5 116.5t161 42.5t160.5 -42.5t116.5 -116.5t43 -161q0 -114 -73 -202l131 -131q10 -9 9.5 -22.5t-9.5 -22.5zM521 655q-106 0 -181 -74.5t-75 -181t75 -181.5t181 -75t181 75t75 181.5t-75 181t-181 74.5zM631 356q-1 -26 -3 -48q0 -12 -4 -21.5t-14 -16.5
q-6 -5 -11 -6.5t-13 -1.5q-16 0 -34 4q-10 3 -17 5t-10 4q-9 4 -9 11q0 12 13 12q2 0 3.5 -0.5t2.5 -1.5q28 -10 45 -10q23 0 25 22q1 21 2 47t2 48q0 6 -2 8q-3 5 -4 5h-83q-6 -53 -22 -86q-12 -23 -18 -30q-3 -4 -9.5 -9t-10.5 -8.5t-4 -6.5q-24 -21 -37 -21q-5 0 -8 5
t-3 8q0 8 9 12q19 12 35 26q13 12 23 31q17 32 21 79h-46h-3h-5q-1 0 -1.5 1.5t-0.5 4.5v3q-24 -21 -32 -21q-2 0 -5 2q-4 3 -5 5q-2 4 -1 7q1 6 6 6h-1q39 35 48 47q21 25 38 62h-1q4 8 12 8q11 0 11 -10q0 -9 -20 -44q-19 -30 -43 -54q1 0 1.5 -0.5t1.5 -0.5h156
q16 0 21 -7q6 -8 6 -20q-1 -23 -2 -49zM681 407.5q-3 -4.5 -8 -4.5q-4 0 -12.5 6t-20.5 18t-23.5 26t-21.5 32q-21 35 -22 46q0 4 3.5 8t8.5 4q3 0 6.5 -2t5.5 -8q7 -16 15.5 -31t19 -29t21.5 -25t22 -19q9 -7 9 -14q0 -3 -3 -7.5z" />
    <glyph glyph-name="uniE62A" unicode="&#xe62a;" 
d="M62 577l453 -452l452 452l-45 46l-407 -408l-408 408z" />
    <glyph glyph-name="uniE62B" unicode="&#xe62b;" 
d="M727 834l-453 -453l453 -452l45 45l-407 407l407 408z" />
    <glyph glyph-name="uniE62C" unicode="&#xe62c;" 
d="M319 -66l452 453l-452 452l-46 -45l408 -407l-408 -408z" />
    <glyph glyph-name="uniE62D" unicode="&#xe62d;" 
d="M962 191l-453 452l-452 -452l45 -46l407 408l408 -408z" />
  </font>
</defs>
</svg>
